<svg height="512" viewBox="0 0 256 256" width="512" xmlns="http://www.w3.org/2000/svg"><g id="Layer_5"><g><g><path d="m128 61.639-61.102 94.278h122.204z" fill="#fcdd86"/></g><g><g><path d="m30.223 186.123v-118.077l36.675 87.871z" fill="#edb311"/></g></g><g><path d="m30.223 68.046 97.777-6.407-61.102 94.278z" fill="#f5c84c"/></g><g><path d="m128 16.788v44.851l-97.777 6.407z" fill="#edb311"/></g><g><path d="m128 239.212-61.102-83.295-36.675 30.206z" fill="#edb311"/></g><g><path d="m128 239.212 61.102-83.295h-122.204z" fill="#f5c84c"/></g><g><g><path d="m225.777 186.123v-118.077l-36.675 87.871z" fill="#edb311"/></g></g><g><path d="m225.777 68.046-97.777-6.407 61.102 94.278z" fill="#f5c84c"/></g><g><path d="m128 16.788v44.851l97.777 6.407z" fill="#edb311"/></g><g><path d="m128 239.212 61.102-83.295 36.675 30.206z" fill="#edb311"/></g><g><path d="m217.013 222.2c-3.1-.6-5.6-3-6.2-6.1 0-.1-.3-.1-.3 0-.6 3.1-3.1 5.5-6.2 6.1-.1 0-.1.2 0 .3 3.1.6 5.6 3 6.2 6.1 0 .1.3.1.3 0 .6-3.1 3.1-5.5 6.2-6.1.1-.1.1-.3 0-.3z" fill="#fc657e"/></g><g><circle cx="161.413" cy="3.4" fill="#87d147" r="3.4"/></g><g><path d="m52.013 231.5h2.3v2.3c0 1.8 1.4 3.2 3.2 3.2 1.7 0 3.2-1.4 3.2-3.1v-.1-2.3h2.3c1.8 0 3.2-1.4 3.2-3.2 0-1.7-1.4-3.2-3.1-3.2h-.1-2.3v-2.3c0-1.8-1.4-3.2-3.2-3.2-1.7 0-3.2 1.4-3.2 3.1v.1 2.3h-2.3c-1.8 0-3.2 1.4-3.2 3.2-.1 1.7 1.3 3.2 3.2 3.2-.1 0-.1 0 0 0z" fill="#70d6f9"/></g><g><circle cx="89.413" cy="252.6" fill="#f5c84c" r="3.4"/></g><g><path d="m191.813 20.2c4.5-.8 8-4.3 8.9-8.7 0-.2.4-.2.4 0 .9 4.4 4.4 7.9 8.9 8.7.2 0 .2.3 0 .4-4.5.8-8 4.3-8.9 8.7 0 .2-.4.2-.4 0-.9-4.4-4.4-7.9-8.9-8.7-.2-.1-.2-.4 0-.4z" fill="#f5c84c"/></g><g><path d="m189.102 158.417h-122.204c-.916 0-1.759-.501-2.196-1.306-.438-.805-.4-1.785.099-2.554l61.102-94.278c.461-.711 1.25-1.14 2.098-1.14s1.637.429 2.098 1.14l61.102 94.278c.499.769.536 1.749.099 2.554-.44.806-1.282 1.306-2.198 1.306zm-117.604-5h113.004l-56.502-87.181z"/></g><g><g><path d="m30.223 188.623c-.362 0-.727-.079-1.067-.239-.874-.413-1.433-1.293-1.433-2.261v-118.077c0-1.191.841-2.217 2.009-2.451 1.177-.237 2.34.389 2.798 1.488l36.675 87.871c.425 1.017.134 2.192-.717 2.893l-36.676 30.206c-.457.376-1.02.57-1.589.57zm2.5-108.096v100.298l31.152-25.658z"/></g></g><g><path d="m30.222 70.546c-1.113 0-2.101-.739-2.405-1.823-.32-1.137.199-2.343 1.245-2.891l97.777-51.258c.775-.406 1.706-.377 2.455.075s1.206 1.264 1.206 2.139v44.851c0 1.317-1.022 2.409-2.337 2.495l-97.777 6.407c-.055.003-.11.005-.164.005zm95.278-49.625-83.662 43.859 83.662-5.482z"/></g><g><path d="m127.999 241.712c-.406 0-.815-.099-1.192-.303l-97.778-53.089c-.73-.397-1.216-1.131-1.295-1.958-.08-.828.257-1.641.898-2.169l36.676-30.206c.53-.437 1.221-.637 1.899-.551.682.085 1.299.448 1.705 1.002l61.103 83.294c.692.943.638 2.241-.132 3.123-.487.56-1.18.857-1.884.857zm-93.324-56.017 84.704 45.991-52.934-72.158z"/></g><g><g><path d="m225.777 188.623c-.569 0-1.133-.194-1.589-.57l-36.676-30.206c-.851-.701-1.142-1.875-.717-2.893l36.675-87.871c.459-1.099 1.627-1.724 2.798-1.488 1.168.234 2.009 1.26 2.009 2.451v118.077c0 .967-.559 1.848-1.433 2.261-.34.16-.704.239-1.067.239zm-33.652-33.456 31.152 25.658v-100.298z"/></g></g><g><path d="m225.778 70.546c-.055 0-.109-.002-.164-.005l-97.777-6.407c-1.314-.086-2.337-1.177-2.337-2.495v-44.851c0-.875.457-1.687 1.206-2.139s1.681-.481 2.455-.075l97.777 51.258c1.046.548 1.565 1.754 1.245 2.891-.304 1.084-1.292 1.823-2.405 1.823zm-95.278-11.248 83.662 5.482-83.662-43.859z"/></g><g><path d="m128.001 241.712c-.704 0-1.396-.297-1.885-.856-.77-.882-.824-2.179-.132-3.123l61.103-83.294c.406-.554 1.023-.917 1.705-1.002.681-.086 1.369.114 1.899.551l36.676 30.206c.642.528.979 1.341.898 2.169-.079.827-.564 1.561-1.295 1.958l-97.777 53.089c-.377.203-.786.302-1.192.302zm61.554-82.184-52.934 72.158 84.704-45.991z"/></g><g><path d="m122.866 143.549h-14.86c-1.381 0-2.5-1.119-2.5-2.5v-11.676c0-4.305 3.502-7.808 7.807-7.808h4.246c1.548 0 2.808-1.259 2.808-2.807s-1.26-2.807-2.808-2.807h-9.553c-1.381 0-2.5-1.119-2.5-2.5s1.119-2.5 2.5-2.5h9.553c4.305 0 7.808 3.502 7.808 7.807s-3.503 7.807-7.808 7.807h-4.246c-1.548 0-2.807 1.259-2.807 2.808v9.176h12.36c1.381 0 2.5 1.119 2.5 2.5s-1.119 2.5-2.5 2.5z"/></g><g><g><path d="m142.688 143.549h-4.246c-4.305 0-7.808-3.502-7.808-7.807v-16.983c0-4.305 3.503-7.807 7.808-7.807h4.246c4.305 0 7.807 3.502 7.807 7.807v16.983c-.001 4.304-3.503 7.807-7.807 7.807zm-4.247-27.598c-1.548 0-2.808 1.259-2.808 2.807v16.983c0 1.548 1.26 2.807 2.808 2.807h4.246c1.548 0 2.807-1.259 2.807-2.807v-16.983c0-1.548-1.259-2.807-2.807-2.807z"/></g></g></g></g></svg>