<svg xmlns="http://www.w3.org/2000/svg" xmlns:xlink="http://www.w3.org/1999/xlink" width="51.378" height="53.023" viewBox="0 0 51.378 53.023">
  <defs>
    <linearGradient id="linear-gradient" x1="1" y1="0.5" x2="0" y2="0.5" gradientUnits="objectBoundingBox">
      <stop offset="0" stop-color="#ba973b"/>
      <stop offset="0.151" stop-color="#a57d24"/>
      <stop offset="0.43" stop-color="#f1dd80"/>
      <stop offset="0.591" stop-color="#fbf2a8"/>
      <stop offset="0.726" stop-color="#f1dd80"/>
      <stop offset="0.926" stop-color="#a57d24"/>
      <stop offset="0.93" stop-color="#a77f26"/>
      <stop offset="1" stop-color="#bf9e40"/>
    </linearGradient>
    <linearGradient id="linear-gradient-3" x1="1" y1="0.5" x2="0" y2="0.5" xlink:href="#linear-gradient"/>
  </defs>
  <g id="Group_369" data-name="Group 369" transform="translate(0)">
    <g id="Group_366" data-name="Group 366" transform="translate(0 25.916)">
      <g id="Group_135" data-name="Group 135">
        <path id="Path_108" data-name="Path 108" d="M632.13,231.25a18.085,18.085,0,0,1-5.532,3c-1.169.44-3.157,1.494-4.445,1.082a.332.332,0,0,1-.136-.505c1.028-1.187,2.068-2.279,3.015-3.546,1.284-1.719,1.246-3.24,1.207-5.3-.012-.629.139-1.272-.3-1.736-.559-.589-1.112-.151-1.909-.05a14.075,14.075,0,0,1-3.793-.185c-3.158-.456-5.577-2.044-8.061-3.969a17.276,17.276,0,0,1-3.324-3.27,4.61,4.61,0,0,1-1.319-2.672.331.331,0,0,1,.526-.217,12.884,12.884,0,0,0,6.732,2.9,40.093,40.093,0,0,0,7.326.084c2.283-.112,4.451-.7,6.709-.964a22.126,22.126,0,0,0,6.8-2.336c4.093-1.971,8.281-4.108,12.806-4.853a20.578,20.578,0,0,1,6.229-.246c.982.141,2.645.108,3.542.744a.274.274,0,0,1,.336.036l.244.213a.333.333,0,0,1-.078.568c-1.648.584-3.356.082-5.065.165a20.716,20.716,0,0,0-7.306,2.027,16.925,16.925,0,0,0-6.13,5.133,6.919,6.919,0,0,0-1.563,4.029,4.249,4.249,0,0,0,1.683,3.646.336.336,0,0,1-.078.568c-1.479.822-3.948.369-5.378-.451a4.632,4.632,0,0,1-1.73-1.9,8.679,8.679,0,0,1-.618-1.985c-.873,1.782,1.565,4.259,1.677,5.944A5.185,5.185,0,0,1,632.13,231.25Z" transform="translate(-607.53 -208.319)" fill="url(#linear-gradient)"/>
      </g>
    </g>
    <g id="Group_367" data-name="Group 367" transform="translate(3.842 0)">
      <path id="Path_107" data-name="Path 107" d="M639.783,193.218c-.137,4.827,2.974,9.594,6.163,13.012a16.087,16.087,0,0,0,1.644,1.519c.083.044.159.1.245.138a.683.683,0,0,1,.3.286,19.71,19.71,0,0,0,2.042,1.313,25.327,25.327,0,0,0,5.194,1.268q-1.114-.677-2.187-1.453a28.819,28.819,0,0,1-7.059-6.364,12.766,12.766,0,0,1-2.077-3.9c-1.993-4.216-2.511-9.006-.288-13.484a8.144,8.144,0,0,1,.7-1.147A12.285,12.285,0,0,0,639.783,193.218Zm-.539,9.945a37.452,37.452,0,0,0,3.738,2.556c-.983-1.163-1.867-2.435-2.767-3.629-1.976-2.623-4-5.311-4.559-8.552C632.8,196.758,636.826,201.228,639.244,203.163Zm13.669,9.842a29.027,29.027,0,0,0,3.606.246,29.264,29.264,0,0,1-5.919-2.142,39.875,39.875,0,0,1-11.475-6.259,23.167,23.167,0,0,1-2.3-1.93c.312,2.562,4.167,5.653,5.971,6.749a25.6,25.6,0,0,0,8.647,3.1c.375.07.749.129,1.121.183A.613.613,0,0,1,652.913,213.005Z" transform="translate(-634.672 -184.403)" fill="url(#linear-gradient)"/>
    </g>
    <path id="Path_223" data-name="Path 223" d="M658.935,214.517s-13.164,2.542-17.507-2.639-1.058-6.847-.063-5.534S646.025,215.214,658.935,214.517Z" transform="translate(-637.811 -184.403)" fill="url(#linear-gradient-3)"/>
  </g>
</svg>
