<svg id="Group_631" data-name="Group 631" xmlns="http://www.w3.org/2000/svg" width="50" height="50" viewBox="0 0 50 50">
  <path id="Path_826" data-name="Path 826" d="M100.925,90.477V79.562H91.457V90.477a1.463,1.463,0,0,1-1.463,1.463H78.968v9.842H89.9a1.463,1.463,0,0,1,1.463,1.463v10.8h9.495v-10.8a1.463,1.463,0,0,1,1.463-1.463h11.124V91.941h-11.06A1.463,1.463,0,0,1,100.925,90.477Z" transform="translate(-71.256 -71.792)" fill="#4c4c4c"/>
  <path id="Path_827" data-name="Path 827" d="M48.542,12.581H37.486V1.458A1.458,1.458,0,0,0,36.028,0H14.058A1.458,1.458,0,0,0,12.6,1.458V12.581H1.458A1.458,1.458,0,0,0,0,14.039V35.979a1.458,1.458,0,0,0,1.458,1.458H12.477v11.1A1.458,1.458,0,0,0,13.936,50H35.942A1.458,1.458,0,0,0,37.4,48.542v-11.1H48.542A1.458,1.458,0,0,0,50,35.979V14.039a1.458,1.458,0,0,0-1.458-1.458ZM45.119,31.454a1.463,1.463,0,0,1-1.463,1.463H32.531v10.8a1.463,1.463,0,0,1-1.463,1.463H18.646a1.463,1.463,0,0,1-1.463-1.463v-10.8H6.248a1.463,1.463,0,0,1-1.463-1.463V18.685a1.463,1.463,0,0,1,1.463-1.463H17.274V6.306a1.463,1.463,0,0,1,1.463-1.463H31.132A1.463,1.463,0,0,1,32.6,6.306V17.222h11.06a1.463,1.463,0,0,1,1.463,1.463Z" transform="translate(0 0)"/>
</svg>
