<svg xmlns="http://www.w3.org/2000/svg" width="30.469" height="50" viewBox="0 0 30.469 50">
  <g id="Group_627" data-name="Group 627" transform="translate(-25)">
    <path id="Path_822" data-name="Path 822" d="M25,47.266v.391A2.351,2.351,0,0,0,27.344,50H53.125a2.351,2.351,0,0,0,2.344-2.344v-.391a2.351,2.351,0,0,0-2.344-2.344V37.812a9.456,9.456,0,0,0-3.477-6.836l-7.461-5.508v-.937l7.461-5.469a9.458,9.458,0,0,0,3.477-6.836V5.078a2.351,2.351,0,0,0,2.344-2.344V2.344A2.351,2.351,0,0,0,53.125,0H27.344A2.351,2.351,0,0,0,25,2.344v.391a2.351,2.351,0,0,0,2.344,2.344v7.109a9.319,9.319,0,0,0,3.477,6.836l7.461,5.469v.938L30.82,30.9a9.458,9.458,0,0,0-3.477,6.836v7.187A2.351,2.351,0,0,0,25,47.266Zm3.906-9.453a7.833,7.833,0,0,1,2.852-5.586l7.773-5.7a.815.815,0,0,0,.312-.625V24.18a.815.815,0,0,0-.312-.625l-7.773-5.742a7.979,7.979,0,0,1-2.852-5.586V5.078H51.563v7.109a7.979,7.979,0,0,1-2.852,5.586l-7.773,5.742a.815.815,0,0,0-.313.625v1.719a.815.815,0,0,0,.313.625l7.773,5.7a8.056,8.056,0,0,1,2.852,5.586v7.148H49.609V38.789a7.129,7.129,0,0,0-2.539-5.078l-6.328-4.688a.823.823,0,0,0-.938,0l-6.367,4.688a6.947,6.947,0,0,0-2.578,5.039v6.172H28.906Z" transform="translate(0)"/>
    <path id="Path_823" data-name="Path 823" d="M53.247,44.094l6.328-4.687a.741.741,0,0,0,.273-.859A.8.8,0,0,0,59.106,38H46.372a.8.8,0,0,0-.742.547.741.741,0,0,0,.273.859l6.367,4.687a.751.751,0,0,0,.469.156A.663.663,0,0,0,53.247,44.094Z" transform="translate(-12.543 -23.156)" fill="#4c4c4c"/>
  </g>
</svg>
