<svg xmlns="http://www.w3.org/2000/svg" width="32.303" height="32.832" viewBox="0 0 32.303 32.832">
  <g id="Group_380" data-name="Group 380" transform="translate(-1702.006 -634.013)">
    <path id="Path_241" data-name="Path 241" d="M1731.6,650.421a13.51,13.51,0,0,0-.115-1.73l2.327-1.595-1.03-3.17-2.811.078a13.474,13.474,0,0,0-2.051-2.817l.944-2.654-2.7-1.959-2.226,1.713a13.335,13.335,0,0,0-3.319-1.076l-.795-2.7h-3.333l-.795,2.7a13.344,13.344,0,0,0-3.319,1.076l-2.226-1.713-2.7,1.959.944,2.654a13.476,13.476,0,0,0-2.052,2.817l-2.811-.078-1.03,3.17,2.327,1.595a13.1,13.1,0,0,0,0,3.476l-2.329,1.6,1.03,3.17,2.821-.078a13.48,13.48,0,0,0,2.047,2.805l-.948,2.666,2.7,1.959,2.239-1.723a13.344,13.344,0,0,0,3.3,1.069l.8,2.715h3.333l.8-2.715a13.337,13.337,0,0,0,3.3-1.069l2.239,1.723,2.7-1.959-.949-2.666a13.48,13.48,0,0,0,2.047-2.805l2.82.078,1.03-3.17-2.329-1.6A13.159,13.159,0,0,0,1731.6,650.421Z" transform="translate(0)" fill="none" stroke="#231f20" stroke-linecap="round" stroke-linejoin="round" stroke-miterlimit="10" stroke-width="1"/>
    <circle id="Ellipse_7" data-name="Ellipse 7" cx="10.731" cy="10.731" r="10.731" transform="translate(1705.262 658.429) rotate(-76.714)" fill="none" stroke="#231f20" stroke-linecap="round" stroke-linejoin="round" stroke-miterlimit="10" stroke-width="1"/>
    <circle id="Ellipse_8" data-name="Ellipse 8" cx="8.464" cy="8.464" r="8.464" transform="translate(1709.695 641.956)" fill="none" stroke="#231f20" stroke-linecap="round" stroke-linejoin="round" stroke-miterlimit="10" stroke-width="1"/>
  </g>
</svg>
