<svg xmlns="http://www.w3.org/2000/svg" width="41.96" height="50" viewBox="0 0 41.96 50">
  <g id="Group_629" data-name="Group 629" transform="translate(-41.232 0.009)">
    <path id="Path_824" data-name="Path 824" d="M112.676,97.924a24.16,24.16,0,0,1-15.44-17.436l0-.021V73.73l.117-.051a12.778,12.778,0,0,0,7.644-11.084l.006-.127,7.744-3,7.5,2.906.005.128a12.8,12.8,0,0,0,7.888,11.277l.121.05v6.642l0,.022a24.162,24.162,0,0,1-15.441,17.436l-.066.024Z" transform="translate(-50.53 -53.666)" fill="#4c4c4c" fill-rule="evenodd"/>
    <path id="Path_825" data-name="Path 825" d="M77.528,20.29v6.488a23.966,23.966,0,0,1-15.316,17.3A23.964,23.964,0,0,1,46.9,26.778V20.192A12.973,12.973,0,0,0,54.657,8.938l7.555-2.93,7.308,2.833A12.994,12.994,0,0,0,77.528,20.29ZM71.071,8.3a.783.783,0,0,0-.5-.732L62.494,4.445a.788.788,0,0,0-.564,0L53.608,7.669a.77.77,0,0,0-.5.719,11.335,11.335,0,0,1-7.278,10.549.784.784,0,0,0-.5.732v7.193a.782.782,0,0,0,.02.175,25.685,25.685,0,0,0,16.6,18.607.808.808,0,0,0,.514,0,25.684,25.684,0,0,0,16.6-18.607.818.818,0,0,0,.019-.175v-7.1a.782.782,0,0,0-.514-.74A11.419,11.419,0,0,1,71.071,8.31ZM81.63,17.122A8.858,8.858,0,0,1,73.88,6.134L62.212,1.613,50.32,6.217A8.859,8.859,0,0,1,42.795,17.1V27.225A28.173,28.173,0,0,0,62.212,48.393,28.177,28.177,0,0,0,81.63,27.225ZM61.93.043,49.091,5.017a.781.781,0,0,0-.458.977,7.3,7.3,0,0,1-6.648,9.6.787.787,0,0,0-.753.781V27.3a.786.786,0,0,0,.017.16A29.718,29.718,0,0,0,61.991,49.956a.714.714,0,0,0,.441,0A29.719,29.719,0,0,0,83.175,27.462a.786.786,0,0,0,.017-.16V16.383a.778.778,0,0,0-.777-.781,7.3,7.3,0,0,1-6.841-9.684.78.78,0,0,0-.456-.984L62.494.043a.788.788,0,0,0-.564,0Z" transform="translate(0 0)" fill="#212121" fill-rule="evenodd"/>
  </g>
</svg>
